<?xml version="1.0" standalone="no"?>
<!DOCTYPE svg PUBLIC "-//W3C//DTD SVG 20010904//EN"
 "http://www.w3.org/TR/2001/REC-SVG-20010904/DTD/svg10.dtd">
<svg version="1.0" xmlns="http://www.w3.org/2000/svg"
 width="709.000000pt" height="709.000000pt" viewBox="0 0 709.000000 709.000000"
 preserveAspectRatio="xMidYMid meet">
<metadata>
Created by potrace 1.11, written by Peter Selinger 2001-2013
</metadata>
<g transform="translate(0.000000,709.000000) scale(0.100000,-0.100000)"
fill="#000000" stroke="none">
<path d="M5939 6918 c-9 -7 -38 -53 -64 -103 -124 -234 -513 -811 -798 -1185
-457 -600 -771 -927 -1047 -1091 -69 -40 -238 -114 -246 -107 -2 3 34 24 81
47 122 60 230 145 391 308 170 172 206 217 278 353 138 263 157 531 80 1115
-30 225 -112 563 -146 597 -21 21 -81 24 -95 6 -6 -7 -30 -71 -53 -143 -52
-157 -80 -225 -250 -610 -202 -460 -273 -600 -403 -797 -197 -301 -429 -618
-535 -730 -108 -114 -177 -163 -252 -178 -108 -22 -299 -88 -418 -145 -322
-155 -604 -403 -807 -710 -72 -109 -160 -277 -204 -387 l-23 -56 -27 30 c-29
33 -69 40 -97 17 -26 -21 -63 -104 -86 -191 -18 -72 -21 -116 -24 -318 l-2
-235 -44 -39 c-23 -21 -67 -52 -96 -68 -88 -50 -92 -60 -92 -210 0 -301 127
-664 351 -1003 177 -269 439 -492 769 -656 164 -82 465 -170 700 -206 144 -21
481 -24 620 -4 128 18 433 94 550 138 284 106 526 267 746 496 220 229 379
495 479 801 79 242 108 427 107 696 0 541 -179 1017 -534 1428 -108 125 -261
255 -444 380 -38 25 70 -31 134 -70 70 -42 200 -105 236 -113 11 -2 50 -11 86
-19 181 -41 343 -41 550 0 41 8 86 16 99 19 142 27 353 170 442 299 132 191
208 438 258 836 36 286 66 782 77 1275 6 233 5 279 -10 334 -20 78 -62 158
-96 183 -33 24 -119 34 -141 16z m-4348 -3771 c19 -14 41 -57 59 -112 7 -22
20 -55 27 -74 l14 -34 33 49 c45 67 107 121 175 153 47 22 70 26 146 26 79 0
97 -4 149 -29 115 -56 213 -189 246 -334 15 -67 15 -207 0 -274 -33 -144 -132
-278 -247 -334 -51 -25 -69 -29 -148 -29 -82 0 -97 3 -157 33 -165 81 -268
285 -255 502 3 47 13 108 21 135 16 49 15 51 -20 160 -57 174 -78 180 -172 50
-58 -79 -62 -89 -101 -239 -48 -184 -102 -321 -112 -284 -12 40 -9 152 6 291
16 149 44 254 75 282 18 16 22 16 43 2 13 -8 28 -30 33 -49 l10 -33 43 59 c73
98 94 112 132 83z"/>
<path d="M1950 3093 c-131 -45 -220 -162 -256 -335 -28 -132 1 -284 78 -398
212 -318 628 -123 628 295 0 297 -226 517 -450 438z"/>
</g>
</svg>
